<?xml version="1.0" encoding="UTF-8"?>
<svg width="1400px" height="123px" viewBox="0 0 1400 123" version="1.1" xmlns="http://www.w3.org/2000/svg" xmlns:xlink="http://www.w3.org/1999/xlink">
    <!-- Generator: Sketch 41.2 (35397) - http://www.bohemiancoding.com/sketch -->
    <title>Page 1</title>
    <desc>Created with Sketch.</desc>
    <defs></defs>
    <g id="Symbols" stroke="none" stroke-width="1" fill="none" fill-rule="evenodd" opacity="0.5">
        <g id="About-Hero-block" transform="translate(0.000000, -307.000000)" fill="#FFFFFF">
            <g id="About-BG">
                <g>
                    <g id="bg" transform="translate(700.000000, 215.000000) scale(-1, 1) translate(-700.000000, -215.000000) ">
                        <path d="M491.626834,394.616709 L472.107186,385.6274 L423.012835,405.626235 L364.946417,381.86689 L268.733588,421.809103 L237.669783,409.582164 L215.085518,418.426228 L140.587109,386.947804 L83.6497605,362.887408 L16.8330557,391.693335 L-3.21944448,383.073739 L-3.21944448,383.9901 L16.2137958,392.3641 L-3.80702133,441.09756 L26.1305953,507.144154 L-3.7292538,500.946179 L-3.9193522,501.717295 L26.1507572,507.954882 L-4,551.813411 L26.8535452,508.414382 L60.4865594,553.030824 L105.254731,512.726821 L133.896222,553.698948 L191.182085,507.606295 L198.178282,552.864453 L259.882492,518.784833 L270.778586,550.561669 L335.10097,502.800026 L335.939131,552.814277 L398.749368,485.457843 L404.818115,552.840686 L491.353208,465.707245 L476.59754,552.745616 L520.907747,502.340525 L540.793191,552.333651 L550.252026,521.724052 L613.911946,551.35127 L635.177043,512.071901 L683.378507,553.099485 L723.299169,502.332603 L747.960116,553.527295 L803.837522,502.501614 L821.021265,552.927832 L837.484937,506.858947 L890.01834,553.094203 L891.533367,491.75881 L954.959984,554 L956.140898,553.178709 L996.001075,492.915483 L1026.38513,553.537859 L1058.12869,474.902536 L1093.67132,552.959522 L1103.18489,491.589798 L1165.52852,553.078358 L1168.89844,508.945185 L1234.47087,553.125893 L1235.37816,515.169568 L1303.3873,553.144378 L1316.72587,502.123979 L1369.28807,553.080999 L1400.76088,502.308835 L1436.60595,553.355643 L1401.6336,502.089648 L1436.65779,507.920551 L1401.65088,501.292125 L1437.63708,470.529359 L1438,469.784651 L1387.88891,426.57576 L1436.06157,426.290553 L1436.05581,425.49567 L1388.36416,425.775596 L1401.98788,407.950145 L1436.55986,421.970192 L1342.62533,383.015642 L1241.97687,425.125957 L1141.73742,382.851912 L1057.32221,416.881356 L1008.73479,397.418605 L990.894341,404.598961 L844.993824,345.180794 L826.482273,352.635793 L823.564551,354.154257 L709.326938,307 L491.626834,394.616709 Z M646.646313,332.988186 L708.704797,307.974458 L707.722622,353.744932 L646.646313,332.988186 Z M710.254387,308.251743 L801.657151,345.978318 L741.007123,354.0988 L710.254387,308.251743 Z M708.586706,353.916585 L709.55448,308.719166 L740.013427,354.13049 L708.586706,353.916585 Z M645.557568,333.42656 L654.953037,381.816715 L494.161479,394.450338 L645.557568,333.42656 Z M646.505179,333.783069 L707.132165,354.389289 L655.776796,381.552634 L646.505179,333.783069 Z M845.290493,346.168456 L906.568422,371.124086 L849.777967,416.638402 L845.290493,346.168456 Z M794.326842,370.281668 L826.873991,353.340889 L844.138381,346.255602 L827.789919,396.631645 L827.582539,398.451161 L794.326842,370.281668 Z M742.686325,354.677137 L802.526995,346.662287 L793.338906,369.711254 L742.686325,354.677137 Z M803.425642,346.709821 L822.634221,354.637525 L794.40749,369.328337 L803.425642,346.709821 Z M828.368855,399.116645 L828.630961,396.784812 L844.532979,347.81896 L848.905242,416.511643 L828.368855,399.116645 Z M708.647192,354.711468 L740.143039,354.922732 L716.867507,405.882393 L708.647192,354.711468 Z M656.407577,382.133612 L707.809031,354.9465 L716.124395,406.69048 L656.407577,382.133612 Z M741.033045,355.020442 L792.489224,370.292232 L717.527091,406.481856 L741.033045,355.020442 Z M18.3077584,391.925726 L83.0016978,363.692854 L91.458196,399.684418 L18.3077584,391.925726 Z M101.83584,383.417044 L84.8882803,364.289676 L137.631944,386.572809 L101.83584,383.417044 Z M84.1134854,364.672593 L101.101369,383.839574 L92.160984,399.045343 L84.1134854,364.672593 Z M717.996576,407.152622 L793.529005,370.685712 L827.473089,399.430901 L824.716662,423.810835 L717.996576,407.152622 Z M907.864547,371.652247 L989.886243,405.05318 L915.387835,439.465541 L907.864547,371.652247 Z M850.22729,417.330293 L907.014865,371.815977 L914.523751,439.486668 L850.22729,417.330293 Z M492.646453,395.364057 L654.359699,382.661774 L574.544297,459.400996 L492.646453,395.364057 Z M348.070864,399.816459 L364.825446,383.020923 L365.064509,382.783251 L420.16712,405.407048 L348.070864,399.816459 Z M655.367797,382.841348 L680.578876,424.735117 L576.142851,459.004875 L655.367797,382.841348 Z M656.465183,383.020923 L715.692353,407.382372 L681.373833,424.418221 L656.465183,383.020923 Z M363.474595,383.203139 L346.941795,399.774206 L310.984396,405.074306 L363.474595,383.203139 Z M1057.77153,418.56091 L1057.75713,417.573248 L1141.55596,383.646795 L1238.86617,424.684942 L1153.26717,411.69481 L1141.18728,385.189026 L1141.01735,384.821954 L1140.22239,385.130928 L1152.3282,411.689529 L1059.87413,417.074135 L1059.49394,417.887504 L1152.37428,412.481771 L1146.14712,431.936599 L1057.77153,418.56091 Z M1243.43718,425.376834 L1341.4617,383.897671 L1319.802,436.830015 L1243.43718,425.376834 Z M1320.93971,436.307136 L1342.34883,383.9901 L1368.73794,415.621691 L1321.10677,436.391641 L1320.93971,436.307136 Z M102.259241,384.25154 L139.086484,387.494451 L112.201963,408.91404 L102.259241,384.25154 Z M1343.71696,384.325482 L1400.56214,407.374449 L1369.57034,415.315357 L1343.71696,384.325482 Z M92.4202091,400.273318 L101.544932,384.753293 L111.441569,409.312802 L111.611506,409.510863 L84.222936,444.459308 L92.4202091,400.273318 Z M472.035179,386.971571 L472.161911,386.593936 L471.755792,386.480381 L471.905566,386.419642 L490.800194,395.115821 L462.570583,415.146346 L472.035179,386.971571 Z M423.107885,406.455448 L471.22294,386.699568 L461.424232,415.872568 L358.399544,436.663645 L423.107885,406.455448 Z M140.575588,387.81663 L213.478322,418.619007 L141.393587,425.738624 L140.575588,387.81663 Z M112.953716,409.352414 L139.717265,388.043739 L140.523743,425.448135 L112.953716,409.352414 Z M18.0773361,392.699483 L91.5042805,400.489864 L83.1889159,445.31493 L18.0773361,392.699483 Z M-2.79316323,440.873092 L16.939626,392.839445 L82.3161915,445.663516 L-2.79316323,440.873092 Z M462.610907,416.1076 L491.574989,395.554195 L572.159426,458.577065 L462.610907,416.1076 Z M1008.69446,398.844641 L1008.85864,398.477569 L1008.36899,398.295353 L1008.56485,398.213488 L1056.21906,417.306526 L988.92711,442.924999 L1008.69446,398.844641 Z M991.309101,405.296134 L1007.92543,398.477569 L988.734132,441.274494 L991.309101,405.296134 Z M828.256525,400.096384 L848.556729,417.28804 L825.600908,423.676154 L828.256525,400.096384 Z M310.339214,405.972181 L347.002281,400.569089 L362.100702,415.302153 L310.339214,405.972181 Z M348.246561,400.624546 L419.965501,406.186086 L363.491876,415.502855 L348.246561,400.624546 Z M916.663798,439.766593 L990.413334,405.697537 L987.728914,443.270945 L916.663798,439.766593 Z M270.147805,422.091669 L307.830491,406.386787 L353.405141,436.993745 L270.147805,422.091669 Z M309.708433,406.666713 L362.768927,416.229077 L354.972012,437.078251 L309.708433,406.666713 Z M363.664693,416.276611 L420.109515,406.967765 L355.948427,436.919803 L363.664693,416.276611 Z M682.341607,424.838109 L716.642845,407.807542 L790.38086,452.986475 L682.341607,424.838109 Z M718.587034,408.047855 L824.212613,424.492163 L792.849259,453.546326 L718.587034,408.047855 Z M1370.44018,415.914821 L1400.78968,408.140284 L1387.19476,425.934044 L1370.44018,415.914821 Z M112.331576,409.930751 L140.011054,426.087211 L84.6693792,445.246269 L112.331576,409.930751 Z M216.324037,418.795941 L237.12541,410.524933 L243.755811,426.549352 L216.324037,418.795941 Z M238.081662,410.604157 L267.388498,422.139204 L244.743747,426.70516 L238.081662,410.604157 Z M1154.01604,412.611171 L1240.35528,425.717498 L1183.64547,446.043792 L1154.01604,412.611171 Z M1146.97664,432.16899 L1153.1462,412.883174 L1182.09588,445.549962 L1146.97664,432.16899 Z M1322.04574,436.859064 L1368.89059,416.432419 L1363.89043,457.80859 L1322.04574,436.859064 Z M1369.75468,416.453545 L1386.22123,426.290553 L1364.88125,456.799801 L1369.75468,416.453545 Z M355.98011,437.962922 L460.611993,416.849666 L399.198691,483.749241 L355.98011,437.962922 Z M461.689218,416.889279 L491.341687,464.18614 L400.546662,483.503646 L461.689218,416.889279 Z M462.777963,417.034523 L572.706679,459.649232 L492.248974,464.043536 L462.777963,417.034523 Z M989.200737,443.68027 L1056.89593,417.905989 L1056.91033,418.975516 L1056.86712,419.229034 L1057.66208,473.333896 L989.200737,443.68027 Z M826.03583,424.38389 L849.227834,417.932397 L888.523476,468.1764 L826.03583,424.38389 Z M850.564283,418.294188 L914.333653,440.265706 L890.571354,469.436065 L850.564283,418.294188 Z M166.783244,437.970844 L214.987588,419.324103 L236.765375,438.108166 L166.783244,437.970844 Z M1057.78305,419.368997 L1145.10446,432.573034 L1058.52328,473.167526 L1057.78305,419.368997 Z M142.364241,426.441079 L212.210999,419.540649 L164.683521,437.92331 L142.364241,426.441079 Z M216.733037,419.741351 L243.833579,427.399692 L237.517128,437.669792 L216.733037,419.741351 Z M269.188672,422.728104 L353.419542,437.801833 L270.790107,461.231076 L269.188672,422.728104 Z M238.170951,438.477879 L268.333229,422.905038 L269.914502,460.927383 L238.170951,438.477879 Z M244.752388,427.513247 L265.991563,423.20609 L238.758528,437.263108 L244.752388,427.513247 Z M793.78823,453.799844 L825.145824,424.753603 L888.886391,469.428142 L793.78823,453.799844 Z M682.019015,425.577535 L791.93621,454.217091 L722.363079,501.057093 L682.019015,425.577535 Z M645.246498,468.622696 L681.120368,425.701653 L721.277214,500.829983 L645.246498,468.622696 Z M576.379034,459.770709 L680.034503,425.75711 L644.373773,468.366538 L576.379034,459.770709 Z M1242.48092,426.037035 L1318.79967,437.484936 L1249.37919,473.394635 L1242.48092,426.037035 Z M1184.61612,446.545546 L1241.61972,426.110978 L1248.50647,473.365586 L1184.61612,446.545546 Z M141.281257,426.794947 L163.983613,438.472598 L131.623682,472.686899 L84.4619991,446.16527 L140.399891,426.800229 L131.131155,470.637632 L131.050507,471.028472 L131.900189,471.176357 L141.281257,426.794947 Z M1364.96189,458.151895 L1386.89234,426.797588 L1436.16238,469.491522 L1364.96189,458.151895 Z M1146.61373,432.879367 L1182.55096,446.579876 L1104.34564,489.434899 L1146.61373,432.879367 Z M1059.13102,473.76963 L1145.13614,433.452423 L1102.71252,490.216578 L1059.13102,473.76963 Z M1315.46142,440.183841 L1320.26861,437.632821 L1321.08085,437.278953 L1363.53039,458.52953 L1316.8958,500.391609 L1315.46142,440.183841 Z M271.369043,461.896559 L354.560132,438.308868 L335.265145,501.337018 L271.369043,461.896559 Z M355.389653,438.530695 L398.311565,484.023885 L337.572249,501.035966 L336.160912,501.339659 L355.389653,438.530695 Z M165.268217,438.763086 L236.727932,438.897768 L191.354901,506.275328 L165.268217,438.763086 Z M132.369674,473.101505 L164.499183,439.140722 L190.032854,505.530621 L132.369674,473.101505 Z M192.187302,506.54205 L237.33567,439.499872 L259.542619,517.683616 L192.187302,506.54205 Z M238.234317,439.523639 L269.911622,461.928249 L260.035147,516.283988 L238.234317,439.523639 Z M915.174694,440.556195 L963.488489,457.098212 L891.573691,469.531134 L915.174694,440.556195 Z M1249.99845,473.983535 L1314.6031,440.564117 L1316.03748,500.697943 L1249.99845,473.983535 Z M917.758304,440.593166 L986.772662,443.986604 L965.040959,456.781315 L917.758304,440.593166 Z M-2.73843794,441.670615 L82.5984588,446.42671 L26.9687564,506.948734 L-2.73843794,441.670615 Z M965.729346,457.317399 L987.803801,444.319345 L995.393336,490.699846 L965.729346,457.317399 Z M988.679406,444.332549 L1056.71159,473.801319 L996.407194,491.555468 L988.679406,444.332549 Z M27.7205091,507.352778 L83.3358101,446.85452 L104.736281,511.670498 L27.7205091,507.352778 Z M84.2286965,446.960153 L131.07931,473.310129 L105.462111,511.147618 L84.2286965,446.960153 Z M1183.81541,447.078989 L1248.00242,474.028429 L1169.1231,507.495381 L1183.81541,447.078989 Z M1103.84735,490.633826 L1182.87068,447.329866 L1168.18701,507.693442 L1103.84735,490.633826 Z M723.693768,501.144239 L792.618836,454.732049 L803.500529,501.358145 L723.693768,501.144239 Z M794.249074,454.990848 L889.28963,490.871499 L837.438853,505.667943 L794.249074,454.990848 Z M796.803881,455.101762 L890.130671,470.439571 L890.130671,490.332774 L796.803881,455.101762 Z M804.393416,501.403039 L793.719103,455.656332 L836.278101,505.596641 L804.393416,501.403039 Z M891.899162,490.956004 L891.763789,490.823964 L964.453382,457.951193 L950.544516,510.880896 L891.899162,490.956004 Z M965.305945,458.093797 L995.367413,491.927821 L951.480607,510.698681 L965.305945,458.093797 Z M890.994755,470.43429 L962.065631,458.149254 L890.994755,490.285239 L890.994755,470.43429 Z M1365.2528,458.981108 L1436.5685,470.360347 L1400.78104,500.95146 L1365.2528,458.981108 Z M1317.53234,500.927693 L1364.20438,459.031283 L1399.84783,501.136317 L1317.53234,500.927693 Z M492.813509,464.804088 L573.305777,460.407144 L521.126648,500.954101 L492.813509,464.804088 Z M575.869225,460.504854 L644.105907,469.113886 L634.799727,510.666991 L575.869225,460.504854 Z M574.754557,460.639535 L634.183347,511.224201 L550.620702,520.678292 L574.754557,460.639535 Z M521.743028,501.516593 L573.599565,461.21259 L549.76814,520.517203 L521.743028,501.516593 Z M270.695058,462.432643 L334.357858,501.730499 L260.660167,517.659849 L270.695058,462.432643 Z M399.541444,484.599581 L490.762751,465.126267 L405.598671,551.860946 L399.541444,484.599581 Z M492.269136,465.472213 L520.507388,501.524516 L477.706447,551.375037 L492.269136,465.472213 Z M644.892223,469.343636 L720.675236,501.445291 L635.574522,511.068394 L644.892223,469.343636 Z M131.8109,473.719454 L190.113501,506.507719 L106.136096,511.657294 L131.8109,473.719454 Z M996.652018,492.310739 L1057.39421,474.429832 L1026.73077,552.328369 L996.652018,492.310739 Z M1058.9006,474.538105 L1102.40433,490.956004 L1093.84702,551.293172 L1058.9006,474.538105 Z M1249.30142,474.569794 L1315.00634,501.149521 L1235.57977,513.962719 L1249.30142,474.569794 Z M1170.10816,507.9496 L1248.32501,474.762573 L1234.64656,514.039302 L1170.10816,507.9496 Z M335.953532,502.195281 L337.79691,501.79916 L398.141629,484.900633 L336.783052,551.739469 L335.953532,502.195281 Z M838.072514,506.277969 L890.548312,491.341562 L889.897369,551.887354 L838.072514,506.277969 Z M1104.3658,491.592439 L1168.06028,508.480402 L1165.46803,551.855664 L1104.3658,491.592439 Z M893.21545,492.247359 L950.340017,511.654653 L950.000144,512.95393 L955.449631,552.698082 L955.201927,553.075717 L893.21545,492.247359 Z M950.858467,513.070126 L951.221382,511.683702 L994.949773,492.976222 L956.169701,551.610069 L950.858467,513.070126 Z M1317.4949,501.712013 L1400.00336,501.925918 L1369.50985,552.143512 L1317.4949,501.712013 Z M1236.13279,514.665173 L1315.91651,501.804441 L1303.32393,552.183124 L1236.13279,514.665173 Z M724.050922,501.933841 L803.008002,502.145105 L748.492967,552.674315 L724.050922,501.933841 Z M636.130416,511.799897 L722.155699,502.071163 L722.368839,502.166232 L683.606049,552.209533 L636.130416,511.799897 Z M804.652641,502.234893 L836.715903,506.454903 L821.433144,551.478029 L804.652641,502.234893 Z M260.668808,518.438887 L333.96902,502.623092 L271.415128,549.764145 L260.668808,518.438887 Z M521.947528,502.638936 L549.480112,521.306804 L541.130184,550.862721 L521.947528,502.638936 Z M106.084251,512.449536 L190.280558,507.276194 L134.351306,552.882938 L106.084251,512.449536 Z M192.005844,507.305243 L258.93776,518.388712 L198.938675,552.154076 L192.005844,507.305243 Z M27.688826,508.139738 L104.344563,512.436332 L60.8984392,552.191047 L27.688826,508.139738 Z M1170.04767,508.736561 L1234.51407,514.823622 L1234.30093,552.029958 L1170.04767,508.736561 Z M551.43006,521.383388 L634.263995,512.013803 L613.909065,550.458677 L551.43006,521.383388 Z" id="Page-1"></path>
                    </g>
                </g>
            </g>
        </g>
    </g>
</svg>