<svg id="Capa_1" data-name="Capa 1" xmlns="http://www.w3.org/2000/svg" viewBox="0 0 263.46 129.51"><defs><style>.cls-1{fill:none;stroke:#fff;stroke-miterlimit:10;}</style></defs><title>geometric-bg</title><path class="cls-1" d="M776.51,123.25l-1.65-4.53a.69.69,0,0,0-.53-.45l-6-1.06a.69.69,0,0,0-.65.24l-3.92,4.67a.69.69,0,0,0-.12.68l.16.44" transform="translate(-635.05 6.08)"/><path class="cls-1" d="M776.82,123.25l-.71-4a.75.75,0,0,0-.48-.58l-6.23-2.27a.75.75,0,0,0-.74.13l-5.08,4.26a.75.75,0,0,0-.26.71l.31,1.76" transform="translate(-635.05 6.08)"/><path class="cls-1" d="M763.24,123.25V120a.82.82,0,0,1,.41-.71l6.24-3.6a.82.82,0,0,1,.82,0l6.24,3.6a.82.82,0,0,1,.41.71v3.22" transform="translate(-635.05 6.08)"/><path class="cls-1" d="M778.15,123.25l.38-2.14a.89.89,0,0,0-.3-.84l-6-5a.89.89,0,0,0-.88-.15L764,117.76a.89.89,0,0,0-.57.68l-.85,4.81" transform="translate(-635.05 6.08)"/><path class="cls-1" d="M761.56,123.25l2.36-6.47a1,1,0,0,1,.74-.62l8.38-1.48a1,1,0,0,1,.91.33l5.47,6.52a1,1,0,0,1,.17,1l-.28.77" transform="translate(-635.05 6.08)"/><path class="cls-1" d="M760.07,123.25a1,1,0,0,1,.06-.15l4.62-8a1.05,1.05,0,0,1,.91-.53h9.25a1.05,1.05,0,0,1,.91.53l4.62,8a1,1,0,0,1,.06.15" transform="translate(-635.05 6.08)"/><path class="cls-1" d="M759.67,123.25l-.36-1a1.14,1.14,0,0,1,.2-1.13l6.46-7.7a1.14,1.14,0,0,1,1.08-.39l9.9,1.75a1.14,1.14,0,0,1,.88.74l2.81,7.71" transform="translate(-635.05 6.08)"/><path class="cls-1" d="M759.35,123.25l-.55-3.14a1.24,1.24,0,0,1,.43-1.17l8.37-7a1.24,1.24,0,0,1,1.22-.22l10.27,3.74a1.24,1.24,0,0,1,.8,1l1.21,6.86" transform="translate(-635.05 6.08)"/><path class="cls-1" d="M781.93,123.25v-5.56a1.35,1.35,0,0,0-.68-1.17L771,110.58a1.35,1.35,0,0,0-1.35,0l-10.29,5.94a1.35,1.35,0,0,0-.68,1.17v5.56" transform="translate(-635.05 6.08)"/><path class="cls-1" d="M757.51,123.25l1.44-8.18a1.47,1.47,0,0,1,.94-1.13L772,109.53a1.47,1.47,0,0,1,1.45.26l9.89,8.3a1.47,1.47,0,0,1,.5,1.38l-.67,3.78" transform="translate(-635.05 6.08)"/><path class="cls-1" d="M755.8,123.25l4-10.92a1.6,1.6,0,0,1,1.22-1l13.82-2.44a1.6,1.6,0,0,1,1.5.55l9,10.75a1.6,1.6,0,0,1,.28,1.57l-.55,1.51" transform="translate(-635.05 6.08)"/><path class="cls-1" d="M753.35,123.25a1.73,1.73,0,0,1,.19-.49l7.63-13.21a1.74,1.74,0,0,1,1.5-.87h15.25a1.74,1.74,0,0,1,1.5.87L787,122.76a1.73,1.73,0,0,1,.19.49" transform="translate(-635.05 6.08)"/><path class="cls-1" d="M787.44,123.25l-4.72-13a1.89,1.89,0,0,0-1.45-1.21l-16.33-2.88a1.89,1.89,0,0,0-1.77.65l-10.66,12.7a1.89,1.89,0,0,0-.33,1.86l.68,1.86" transform="translate(-635.05 6.08)"/><path class="cls-1" d="M788.16,123.25l-2-11.56a2.05,2.05,0,0,0-1.32-1.57L767.86,104a2.05,2.05,0,0,0-2,.36L752,115.89a2.05,2.05,0,0,0-.7,1.93l1,5.43" transform="translate(-635.05 6.08)"/><path class="cls-1" d="M751.1,123.25v-9.42a2.23,2.23,0,0,1,1.11-1.93l17-9.79a2.23,2.23,0,0,1,2.23,0l17,9.79a2.23,2.23,0,0,1,1.11,1.93v9.42" transform="translate(-635.05 6.08)"/><path class="cls-1" d="M791.54,123.25l1.14-6.48a2.42,2.42,0,0,0-.83-2.28L775.55,100.8a2.42,2.42,0,0,0-2.39-.42l-20,7.28a2.42,2.42,0,0,0-1.56,1.86l-2.42,13.73" transform="translate(-635.05 6.08)"/><path class="cls-1" d="M746.3,123.25,752.94,105a2.63,2.63,0,0,1,2-1.69l22.79-4a2.63,2.63,0,0,1,2.48.9l14.88,17.73a2.63,2.63,0,0,1,.46,2.59l-1,2.74" transform="translate(-635.05 6.08)"/><path class="cls-1" d="M742.3,123.25a2.86,2.86,0,0,1,.36-1.05l12.58-21.78A2.86,2.86,0,0,1,757.72,99h25.15a2.86,2.86,0,0,1,2.48,1.43l12.58,21.78a2.86,2.86,0,0,1,.36,1.05" transform="translate(-635.05 6.08)"/><path class="cls-1" d="M741.64,123.25l-1.2-3.31a3.11,3.11,0,0,1,.54-3.06l17.57-20.94a3.11,3.11,0,0,1,2.92-1.06l26.93,4.75a3.11,3.11,0,0,1,2.38,2l7.87,21.63" transform="translate(-635.05 6.08)"/><path class="cls-1" d="M740.66,123.25,739,114a3.38,3.38,0,0,1,1.16-3.18L763,91.77a3.38,3.38,0,0,1,3.33-.59l27.93,10.16a3.38,3.38,0,0,1,2.17,2.59l3.41,19.31" transform="translate(-635.05 6.08)"/><path class="cls-1" d="M801.94,123.25V107.47a3.68,3.68,0,0,0-1.84-3.18l-28-16.15a3.68,3.68,0,0,0-3.68,0l-28,16.15a3.68,3.68,0,0,0-1.84,3.18v15.77" transform="translate(-635.05 6.08)"/><path class="cls-1" d="M735.42,123.25l4-22.89A4,4,0,0,1,742,97.3l33-12A4,4,0,0,1,779,86l26.9,22.57a4,4,0,0,1,1.37,3.76l-1.93,10.94" transform="translate(-635.05 6.08)"/><path class="cls-1" d="M730.63,123.25l11-30.34A4.34,4.34,0,0,1,745,90.11l37.59-6.63A4.34,4.34,0,0,1,786.67,85l24.53,29.24a4.34,4.34,0,0,1,.75,4.28l-1.73,4.76" transform="translate(-635.05 6.08)"/><path class="cls-1" d="M724.11,123.25a4.71,4.71,0,0,1,.61-2l20.74-35.93A4.72,4.72,0,0,1,749.55,83H791a4.72,4.72,0,0,1,4.09,2.36l20.74,35.93a4.71,4.71,0,0,1,.61,2" transform="translate(-635.05 6.08)"/><path class="cls-1" d="M817.17,123.25,804.1,87.33a5.13,5.13,0,0,0-3.93-3.3L755.76,76.2A5.13,5.13,0,0,0,750.94,78L722,112.5a5.13,5.13,0,0,0-.89,5.05l2.07,5.7" transform="translate(-635.05 6.08)"/><path class="cls-1" d="M819,123.25l-5.66-32.1a5.58,5.58,0,0,0-3.59-4.27L763.69,70.11a5.58,5.58,0,0,0-5.49,1l-37.55,31.5a5.58,5.58,0,0,0-1.91,5.24l2.72,15.42" transform="translate(-635.05 6.08)"/><path class="cls-1" d="M718.09,123.25V97a6.06,6.06,0,0,1,3-5.25L767.26,65.1a6.06,6.06,0,0,1,6.06,0l46.14,26.64a6.06,6.06,0,0,1,3,5.25v26.26" transform="translate(-635.05 6.08)"/><path class="cls-1" d="M828,123.25,831.2,105a6.59,6.59,0,0,0-2.25-6.19L784.58,61.55a6.59,6.59,0,0,0-6.49-1.14L723.68,80.21a6.59,6.59,0,0,0-4.24,5l-6.7,38" transform="translate(-635.05 6.08)"/><path class="cls-1" d="M704.8,123.25,723.1,73a7.16,7.16,0,0,1,5.49-4.61l62-10.93a7.16,7.16,0,0,1,6.73,2.45l40.46,48.22a7.16,7.16,0,0,1,1.24,7.06l-2.95,8.1" transform="translate(-635.05 6.08)"/><path class="cls-1" d="M694.1,123.25a7.78,7.78,0,0,1,1-3.52l34.21-59.25a7.79,7.79,0,0,1,6.74-3.89H804.5a7.79,7.79,0,0,1,6.74,3.89l34.21,59.25a7.78,7.78,0,0,1,1,3.52" transform="translate(-635.05 6.08)"/><path class="cls-1" d="M692.61,123.25l-3.51-9.64a8.46,8.46,0,0,1,1.47-8.34l47.8-57a8.46,8.46,0,0,1,8-2.9l73.24,12.91A8.46,8.46,0,0,1,826,63.76l21.65,59.48" transform="translate(-635.05 6.08)"/><path class="cls-1" d="M689.8,123.25l-4.53-25.67a9.2,9.2,0,0,1,3.15-8.65l61.92-52a9.2,9.2,0,0,1,9.06-1.6l76,27.65a9.2,9.2,0,0,1,5.91,7l9.38,53.18" transform="translate(-635.05 6.08)"/><path class="cls-1" d="M856.38,123.25V79.69a10,10,0,0,0-5-8.66L775.29,27.1a10,10,0,0,0-10,0L689.2,71a10,10,0,0,0-5,8.66v43.55" transform="translate(-635.05 6.08)"/><path class="cls-1" d="M675.34,123.25l11.09-62.9a10.87,10.87,0,0,1,7-8.33l89.74-32.66a10.87,10.87,0,0,1,10.71,1.89L867,82.63a10.87,10.87,0,0,1,3.72,10.21l-5.36,30.4" transform="translate(-635.05 6.08)"/><path class="cls-1" d="M662.19,123.25l30.28-83.18a11.82,11.82,0,0,1,9.05-7.6l102.23-18a11.82,11.82,0,0,1,11.1,4L881.57,98a11.82,11.82,0,0,1,2.05,11.64l-5,13.61" transform="translate(-635.05 6.08)"/><path class="cls-1" d="M644.63,123.25a12.83,12.83,0,0,1,1.71-6l56.42-97.72a12.84,12.84,0,0,1,11.12-6.42H826.71a12.84,12.84,0,0,1,11.12,6.42l56.42,97.72a12.83,12.83,0,0,1,1.71,6" transform="translate(-635.05 6.08)"/><path class="cls-1" d="M898,123.25,862.24,24.9a14,14,0,0,0-10.69-9L730.77-5.37A14,14,0,0,0,717.65-.59l-78.83,94a14,14,0,0,0-2.42,13.75l5.88,16.14" transform="translate(-635.05 6.08)"/></svg>